<svg enable-background="new 0 0 272 272" viewBox="0 0 272 272" xmlns="http://www.w3.org/2000/svg" preserveAspectRatio="xMidYMid meet"><path clip-rule="evenodd" d="m272 0h-272v272h272zm-154.2 91.8 10.3 11h15.2l9.9-11c-.9-.3-1.9-.5-2.9-.5h-29.5c-1.1 0-2.1.2-3 .5zm38.6 2.1-10.9 12.1v19l10.2 7.2.1.1c1.9-1.6 3-3.9 3-6.5v-26c-.1-2.3-1-4.4-2.4-5.9zm-77.8 12.1 10.9-12.1c1.5 1.5 2.4 3.6 2.4 5.9v26.1c0 2.6-1.2 4.9-3 6.5l-.1-.1-10.2-7.2zm-17.5 34.4h14.4c3-2.2 6.3-4.6 8.9-6.5l-7.6-5.4h-15.4l-8.5 5.5zm-2.4-14.6v-20.2l-11-11.7c-1.5 1.5-2.4 3.6-2.4 5.9v26.1c0 2.6 1.2 5 3.1 6.5zm29.4 10-9.6 7v20.2l5.7 17.7c4.3-.4 7.6-4 7.6-8.4v-29.4c.1-3-1.4-5.6-3.7-7.1zm135.1-41.6-10.9 12.1v19l10.2 7.2.1.1c1.9-1.6 3-3.9 3-6.5v-26.1c0-2.3-.9-4.3-2.4-5.8zm-28.3 46.5h14.4c3-2.2 6.3-4.6 8.9-6.5l-7.6-5.4h-15.4l-8.5 5.5zm-2.5-14.6v-20.2l-11-11.7c-1.5 1.5-2.4 3.6-2.4 5.9v26.1c0 2.6 1.2 5 3.1 6.5zm29.5 10-9.6 7v20.1l5.7 17.7c4.3-.4 7.6-4 7.6-8.4v-29.4c0-2.9-1.5-5.5-3.7-7zm-96.3-30.5v20.2l-10.2 6.6c-1.9-1.5-3.1-3.9-3.1-6.5v-26.1c0-2.3.9-4.3 2.4-5.9zm-9.6 30.2c-2.3 1.5-3.8 4.1-3.8 7v29.4.3.2l13.3-7.7v-21.9zm29.4 7 9.6-7c2.3 1.5 3.7 4.1 3.7 7v29.4c0 4.4-3.3 8-7.6 8.4l-5.7-17.7zm-17.3 25.2h15l4.1 12.7h-26.5c-3.2 0-5.9-1.7-7.4-4.3z" fill="#d9d9d9" fill-rule="evenodd"/><g fill="#cfcece"><path d="m50.9 91.8 10.3 11h15.2l9.9-11c-.9-.3-1.9-.5-2.9-.5h-29.5c-1.1 0-2.1.2-3 .5z"/><path d="m45.4 142.8c0-2.9 1.5-5.5 3.8-7l9.5 7.4v21.9l-13.3 7.7v-.2-.3z"/><path d="m76.2 168h-15l-14.7 8.5c1.5 2.5 4.2 4.3 7.4 4.3h26.5z"/><path d="m184.6 92.1 10.3 11h15.2l9.9-11c-.9-.3-1.9-.5-2.9-.5h-29.5c-1 0-2 .2-3 .5z"/><path d="m179.1 143.1c0-2.9 1.5-5.5 3.8-7l9.5 7.4v21.9l-13.3 7.7v-.2-.3z"/><path d="m210 168.2h-15l-14.7 8.5c1.5 2.5 4.2 4.3 7.4 4.3h26.5z"/><path d="m128 140.4h14.4c3-2.2 6.3-4.6 8.9-6.5l-7.6-5.4h-15.4l-8.5 5.5z"/></g></svg>