<svg fill="none" viewBox="0 0 27 27" xmlns="http://www.w3.org/2000/svg" preserveAspectRatio="xMidYMid meet"><path clip-rule="evenodd" d="m14.1247 3.71907c-.3652-.29217-.8841-.29217-1.2494 0l-11.24996 9.00003c-.43126.345-.50118.9743-.15617 1.4055.34501.4313.9743.5012 1.40556.1562l1.37531-1.1002v7.8194c0 .6631.26339 1.299.73223 1.7678s1.10472.7322 1.76777.7322h4.49996c.5523 0 1-.4477 1-1v-5h2.5v5c0 .5523.4478 1 1 1h4.5c.6631 0 1.299-.2634 1.7678-.7322s.7322-1.1047.7322-1.7678v-7.8194l1.3753 1.1002c.4313.345 1.0606.2751 1.4056-.1562.345-.4312.2751-1.0605-.1562-1.4055zm6.6253 7.86153-7.25-5.80004-7.24996 5.80004v9.4194c0 .1326.05267.2598.14644.3536s.22095.1464.35356.1464h3.49996v-4.25c0-.4641.1844-.9092.5126-1.2374s.7733-.5126 1.2374-.5126h3c.4642 0 .9093.1844 1.2375.5126s.5125.7733.5125 1.2374v4.25h3.5c.1326 0 .2598-.0526.3536-.1464s.1464-.221.1464-.3536z" fill="#fff" fill-rule="evenodd"/></svg>